<mxfile host="65bd71144e">
    <diagram id="j5Iltt6aX2gJKEkjgmRw" name="Page-1">
        <mxGraphModel dx="1509" dy="694" grid="1" gridSize="10" guides="1" tooltips="1" connect="1" arrows="1" fold="1" page="1" pageScale="1" pageWidth="850" pageHeight="1100" math="0" shadow="0">
            <root>
                <mxCell id="0"/>
                <mxCell id="1" parent="0"/>
                <mxCell id="54" value="" style="rounded=0;whiteSpace=wrap;html=1;fontSize=11;fontColor=#0000FF;" vertex="1" parent="1">
                    <mxGeometry x="20" y="480" width="1400" height="590" as="geometry"/>
                </mxCell>
                <mxCell id="2" value="&lt;p style=&quot;line-height: 100%;&quot;&gt;&amp;nbsp; &amp;nbsp;Intranet&amp;nbsp;&lt;/p&gt;" style="rounded=1;whiteSpace=wrap;html=1;align=left;labelPosition=center;verticalLabelPosition=middle;verticalAlign=top;" parent="1" vertex="1">
                    <mxGeometry x="410" y="90.05000000000001" width="200" height="120" as="geometry"/>
                </mxCell>
                <mxCell id="3" value="Webform&lt;br&gt;(update details)" style="rounded=0;whiteSpace=wrap;html=1;" parent="1" vertex="1">
                    <mxGeometry x="470" y="130.05" width="120" height="60" as="geometry"/>
                </mxCell>
                <mxCell id="4" value="&lt;p style=&quot;line-height: 100%;&quot;&gt;&amp;nbsp; &amp;nbsp;Resovle Portal&lt;/p&gt;" style="rounded=1;whiteSpace=wrap;html=1;align=left;labelPosition=center;verticalLabelPosition=middle;verticalAlign=top;" parent="1" vertex="1">
                    <mxGeometry x="30" y="45.93" width="250" height="170" as="geometry"/>
                </mxCell>
                <mxCell id="5" value="&lt;p style=&quot;line-height: 100%;&quot;&gt;&amp;nbsp; &amp;nbsp;Resolve API&lt;/p&gt;" style="rounded=1;whiteSpace=wrap;html=1;align=left;labelPosition=center;verticalLabelPosition=middle;verticalAlign=top;" parent="1" vertex="1">
                    <mxGeometry x="670" y="90.05000000000001" width="200" height="120" as="geometry"/>
                </mxCell>
                <mxCell id="11" style="edgeStyle=orthogonalEdgeStyle;html=1;exitX=0.504;exitY=0.996;exitDx=0;exitDy=0;exitPerimeter=0;" parent="1" source="17" target="3" edge="1">
                    <mxGeometry relative="1" as="geometry">
                        <mxPoint x="100" y="565.93" as="sourcePoint"/>
                        <Array as="points">
                            <mxPoint x="181" y="415.93"/>
                            <mxPoint x="400" y="415.93"/>
                            <mxPoint x="400" y="159.93"/>
                        </Array>
                    </mxGeometry>
                </mxCell>
                <mxCell id="18" value="&lt;font style=&quot;font-size: 11px;&quot;&gt;&lt;span style=&quot;background-color: rgb(251, 251, 251);&quot;&gt;If cookie indicate &lt;br&gt;logged-in user&lt;/span&gt;&lt;br&gt;&lt;/font&gt;" style="edgeLabel;html=1;align=center;verticalAlign=middle;resizable=0;points=[];" parent="11" vertex="1" connectable="0">
                    <mxGeometry x="-0.4682" y="-1" relative="1" as="geometry">
                        <mxPoint x="124" y="-15" as="offset"/>
                    </mxGeometry>
                </mxCell>
                <mxCell id="26" value="&lt;b&gt;&lt;font color=&quot;#990000&quot;&gt;&amp;nbsp;UID&amp;nbsp;&lt;/font&gt;&lt;/b&gt;" style="edgeLabel;html=1;align=center;verticalAlign=middle;resizable=0;points=[];fontSize=11;" parent="11" vertex="1" connectable="0">
                    <mxGeometry x="-0.6217" y="-1" relative="1" as="geometry">
                        <mxPoint x="4" as="offset"/>
                    </mxGeometry>
                </mxCell>
                <mxCell id="27" value="&lt;b&gt;UID&lt;/b&gt;" style="edgeLabel;html=1;align=center;verticalAlign=middle;resizable=0;points=[];fontSize=11;fontColor=#990000;" parent="11" vertex="1" connectable="0">
                    <mxGeometry x="0.8694" relative="1" as="geometry">
                        <mxPoint as="offset"/>
                    </mxGeometry>
                </mxCell>
                <mxCell id="12" value="API&lt;br&gt;(update details)" style="rounded=0;whiteSpace=wrap;html=1;" parent="1" vertex="1">
                    <mxGeometry x="730" y="130.05" width="120" height="60" as="geometry"/>
                </mxCell>
                <mxCell id="14" value="&amp;nbsp; &amp;nbsp;View&lt;br&gt;&amp;nbsp; (display details)" style="rounded=0;whiteSpace=wrap;html=1;verticalAlign=top;align=left;" parent="1" vertex="1">
                    <mxGeometry x="60" y="85.93" width="190" height="110" as="geometry"/>
                </mxCell>
                <mxCell id="16" style="edgeStyle=orthogonalEdgeStyle;html=1;exitX=0.5;exitY=1;exitDx=0;exitDy=0;" parent="1" source="15" edge="1">
                    <mxGeometry relative="1" as="geometry">
                        <mxPoint x="180" y="315.93" as="targetPoint"/>
                    </mxGeometry>
                </mxCell>
                <mxCell id="25" value="check &lt;br&gt;cookie" style="edgeLabel;html=1;align=center;verticalAlign=middle;resizable=0;points=[];fontSize=11;" parent="16" vertex="1" connectable="0">
                    <mxGeometry x="0.3167" y="-1" relative="1" as="geometry">
                        <mxPoint x="-19" as="offset"/>
                    </mxGeometry>
                </mxCell>
                <mxCell id="15" value="Link&lt;br&gt;(update details)" style="rounded=0;whiteSpace=wrap;html=1;" parent="1" vertex="1">
                    <mxGeometry x="120" y="125.93" width="120" height="60" as="geometry"/>
                </mxCell>
                <mxCell id="19" style="edgeStyle=orthogonalEdgeStyle;html=1;entryX=1.012;entryY=0.459;entryDx=0;entryDy=0;entryPerimeter=0;" parent="1" source="17" target="4" edge="1">
                    <mxGeometry relative="1" as="geometry">
                        <Array as="points">
                            <mxPoint x="380" y="355.93"/>
                            <mxPoint x="380" y="123.93"/>
                        </Array>
                    </mxGeometry>
                </mxCell>
                <mxCell id="20" value="If cookie indicate&lt;br style=&quot;border-color: var(--border-color);&quot;&gt;non-logged-in user" style="edgeLabel;html=1;align=center;verticalAlign=middle;resizable=0;points=[];labelBackgroundColor=none;" parent="19" vertex="1" connectable="0">
                    <mxGeometry x="-0.7475" y="3" relative="1" as="geometry">
                        <mxPoint y="-17" as="offset"/>
                    </mxGeometry>
                </mxCell>
                <mxCell id="17" value="type of current user" style="html=1;whiteSpace=wrap;aspect=fixed;shape=isoRectangle;" parent="1" vertex="1">
                    <mxGeometry x="105" y="315.93" width="150" height="90" as="geometry"/>
                </mxCell>
                <mxCell id="21" style="edgeStyle=orthogonalEdgeStyle;html=1;fontSize=11;" parent="1" target="12" edge="1">
                    <mxGeometry relative="1" as="geometry">
                        <mxPoint x="530" y="130.05" as="sourcePoint"/>
                        <Array as="points">
                            <mxPoint x="530" y="50.05"/>
                            <mxPoint x="790" y="50.05"/>
                        </Array>
                    </mxGeometry>
                </mxCell>
                <mxCell id="22" value="Update the details using the &lt;br&gt;Resolve CRM API" style="edgeLabel;html=1;align=center;verticalAlign=middle;resizable=0;points=[];fontSize=11;" parent="21" vertex="1" connectable="0">
                    <mxGeometry x="0.0538" y="-2" relative="1" as="geometry">
                        <mxPoint x="-1" y="-22" as="offset"/>
                    </mxGeometry>
                </mxCell>
                <mxCell id="28" value="&lt;b&gt;&amp;nbsp;UID&amp;nbsp;&lt;/b&gt;" style="edgeLabel;html=1;align=center;verticalAlign=middle;resizable=0;points=[];fontSize=11;fontColor=#990000;" parent="21" vertex="1" connectable="0">
                    <mxGeometry x="-0.8063" relative="1" as="geometry">
                        <mxPoint as="offset"/>
                    </mxGeometry>
                </mxCell>
                <mxCell id="29" value="&lt;b&gt;UID&lt;/b&gt;" style="edgeLabel;html=1;align=center;verticalAlign=middle;resizable=0;points=[];fontSize=11;fontColor=#990000;" parent="21" vertex="1" connectable="0">
                    <mxGeometry x="0.727" y="1" relative="1" as="geometry">
                        <mxPoint y="17" as="offset"/>
                    </mxGeometry>
                </mxCell>
                <mxCell id="30" value="&lt;p style=&quot;line-height: 100%;&quot;&gt;&lt;br&gt;&lt;/p&gt;&lt;p style=&quot;line-height: 100%;&quot;&gt;&amp;nbsp; &amp;nbsp; &amp;nbsp; &amp;nbsp; &amp;nbsp; &amp;nbsp; &amp;nbsp; &amp;nbsp; &amp;nbsp;Resovle Portal&lt;/p&gt;" style="rounded=1;whiteSpace=wrap;html=1;align=left;labelPosition=center;verticalLabelPosition=middle;verticalAlign=top;" vertex="1" parent="1">
                    <mxGeometry x="50" y="600" width="1000" height="400" as="geometry"/>
                </mxCell>
                <mxCell id="31" value="&amp;nbsp; &amp;nbsp;View for&lt;font color=&quot;#cc0000&quot;&gt; &lt;b&gt;account-#1 &lt;/b&gt;&lt;/font&gt;user&lt;br&gt;&amp;nbsp; &amp;nbsp; &amp;nbsp; &amp;nbsp;(display details)" style="rounded=0;whiteSpace=wrap;html=1;verticalAlign=top;align=left;" vertex="1" parent="1">
                    <mxGeometry x="490" y="690" width="260" height="190" as="geometry"/>
                </mxCell>
                <mxCell id="32" value="&amp;nbsp; &amp;nbsp;View for &lt;b&gt;&lt;font color=&quot;#0000ff&quot;&gt;account-#2 &lt;/font&gt;&lt;/b&gt;user&lt;br&gt;&amp;nbsp; &amp;nbsp; &amp;nbsp; &amp;nbsp;(display details)" style="rounded=0;whiteSpace=wrap;html=1;verticalAlign=top;align=left;" vertex="1" parent="1">
                    <mxGeometry x="760" y="690" width="260" height="190" as="geometry"/>
                </mxCell>
                <mxCell id="33" value="&amp;nbsp; &amp;nbsp;View for &lt;b style=&quot;&quot;&gt;&lt;font color=&quot;#4d9900&quot;&gt;not logged-in&lt;/font&gt;&lt;/b&gt; user&lt;br&gt;&amp;nbsp; &amp;nbsp; &amp;nbsp; &amp;nbsp;(display details)" style="rounded=0;whiteSpace=wrap;html=1;verticalAlign=top;align=left;" vertex="1" parent="1">
                    <mxGeometry x="150" y="690" width="260" height="190" as="geometry"/>
                </mxCell>
                <mxCell id="34" value="&lt;font style=&quot;font-size: 11px;&quot;&gt;LINK:&amp;nbsp;&lt;font color=&quot;#4d9900&quot;&gt;www.portal.iro/login&lt;/font&gt;&amp;nbsp;&lt;br&gt;(unique to&amp;nbsp;&lt;b&gt;&lt;font color=&quot;#4d9900&quot;&gt;not logged-in&lt;/font&gt;&lt;/b&gt; user)&lt;/font&gt;" style="rounded=0;whiteSpace=wrap;html=1;" vertex="1" parent="1">
                    <mxGeometry x="180" y="820" width="210" height="40" as="geometry"/>
                </mxCell>
                <mxCell id="35" value=",,,,," style="rounded=0;whiteSpace=wrap;html=1;" vertex="1" parent="1">
                    <mxGeometry x="180" y="735" width="210" height="75" as="geometry"/>
                </mxCell>
                <mxCell id="36" value=",,,,," style="rounded=0;whiteSpace=wrap;html=1;" vertex="1" parent="1">
                    <mxGeometry x="520" y="735" width="210" height="75" as="geometry"/>
                </mxCell>
                <mxCell id="37" value="&lt;font style=&quot;font-size: 11px;&quot;&gt;LINK:&amp;nbsp;&lt;font color=&quot;#cc0000&quot;&gt;www.intranet.iro/webform/account-1&lt;/font&gt;&lt;br&gt;(unique to&lt;font color=&quot;#cc0000&quot;&gt; &lt;/font&gt;&lt;b&gt;&lt;font color=&quot;#cc0000&quot;&gt;account-#1&lt;/font&gt;&amp;nbsp;&lt;/b&gt;user)&lt;/font&gt;" style="rounded=0;whiteSpace=wrap;html=1;" vertex="1" parent="1">
                    <mxGeometry x="510" y="820" width="220" height="40" as="geometry"/>
                </mxCell>
                <mxCell id="38" value="&lt;font style=&quot;font-size: 11px;&quot;&gt;LINK:&amp;nbsp;&lt;font color=&quot;#0000ff&quot;&gt;www.intranet.iro/webform/account-2&lt;/font&gt;&lt;br&gt;(unique to &lt;font color=&quot;#0000ff&quot;&gt;&lt;b&gt;account-#2&lt;/b&gt;&amp;nbsp;&lt;/font&gt;user)&lt;/font&gt;" style="rounded=0;whiteSpace=wrap;html=1;" vertex="1" parent="1">
                    <mxGeometry x="785" y="820" width="210" height="40" as="geometry"/>
                </mxCell>
                <mxCell id="39" value=",,,,," style="rounded=0;whiteSpace=wrap;html=1;" vertex="1" parent="1">
                    <mxGeometry x="780" y="735" width="210" height="75" as="geometry"/>
                </mxCell>
                <mxCell id="69" style="edgeStyle=orthogonalEdgeStyle;html=1;entryX=0.25;entryY=0;entryDx=0;entryDy=0;strokeColor=#CC0000;fontSize=11;fontColor=#000000;" edge="1" parent="1" source="40" target="31">
                    <mxGeometry relative="1" as="geometry">
                        <Array as="points">
                            <mxPoint x="420" y="950"/>
                            <mxPoint x="420" y="670"/>
                            <mxPoint x="555" y="670"/>
                        </Array>
                    </mxGeometry>
                </mxCell>
                <mxCell id="40" value="&lt;font color=&quot;#000000&quot;&gt;Resolve Portal&lt;br&gt;Login Page&lt;/font&gt;" style="rounded=0;whiteSpace=wrap;html=1;fontSize=11;fontColor=#0000FF;" vertex="1" parent="1">
                    <mxGeometry x="220" y="920" width="120" height="60" as="geometry"/>
                </mxCell>
                <mxCell id="42" value="&lt;p style=&quot;line-height: 100%;&quot;&gt;&amp;nbsp; &amp;nbsp; &amp;nbsp; &amp;nbsp; &amp;nbsp;&lt;/p&gt;&lt;p style=&quot;line-height: 100%;&quot;&gt;&amp;nbsp; &amp;nbsp; &amp;nbsp;Intranet&lt;/p&gt;" style="rounded=1;whiteSpace=wrap;html=1;align=left;labelPosition=center;verticalLabelPosition=middle;verticalAlign=top;" vertex="1" parent="1">
                    <mxGeometry x="1100" y="600" width="280" height="180" as="geometry"/>
                </mxCell>
                <mxCell id="43" value="&lt;font style=&quot;font-size: 11px;&quot;&gt;Webform&lt;br&gt;(update details for &lt;font style=&quot;font-size: 11px;&quot; color=&quot;#cc0000&quot;&gt;account-#1 &lt;/font&gt;user)&lt;/font&gt;" style="rounded=0;whiteSpace=wrap;html=1;" vertex="1" parent="1">
                    <mxGeometry x="1130" y="680" width="80" height="60" as="geometry"/>
                </mxCell>
                <mxCell id="41" style="edgeStyle=none;html=1;fontSize=11;fontColor=#000000;exitX=0.478;exitY=0.974;exitDx=0;exitDy=0;exitPerimeter=0;strokeColor=#4D9900;" edge="1" parent="1" source="34" target="40">
                    <mxGeometry relative="1" as="geometry"/>
                </mxCell>
                <mxCell id="65" value="&lt;font color=&quot;#000000&quot;&gt;redirect&amp;nbsp;&lt;br&gt;to login&lt;br&gt;&lt;/font&gt;" style="edgeLabel;html=1;align=center;verticalAlign=middle;resizable=0;points=[];fontSize=11;fontColor=#FF8000;" vertex="1" connectable="0" parent="41">
                    <mxGeometry x="-0.0291" y="4" relative="1" as="geometry">
                        <mxPoint x="-29" y="11" as="offset"/>
                    </mxGeometry>
                </mxCell>
                <mxCell id="44" style="edgeStyle=orthogonalEdgeStyle;html=1;entryX=0.5;entryY=0;entryDx=0;entryDy=0;fontSize=11;fontColor=#000000;strokeColor=#CC0000;" edge="1" parent="1" source="37" target="43">
                    <mxGeometry relative="1" as="geometry">
                        <Array as="points">
                            <mxPoint x="560" y="1030"/>
                            <mxPoint x="1070" y="1030"/>
                            <mxPoint x="1070" y="570"/>
                            <mxPoint x="1170" y="570"/>
                        </Array>
                    </mxGeometry>
                </mxCell>
                <mxCell id="67" value="redirect to &lt;br&gt;webfrom" style="edgeLabel;html=1;align=center;verticalAlign=middle;resizable=0;points=[];fontSize=11;fontColor=#000000;" vertex="1" connectable="0" parent="44">
                    <mxGeometry x="-0.928" y="-1" relative="1" as="geometry">
                        <mxPoint as="offset"/>
                    </mxGeometry>
                </mxCell>
                <mxCell id="45" value="&lt;font style=&quot;font-size: 11px;&quot;&gt;Webform&lt;br&gt;(update details for &lt;font style=&quot;font-size: 11px;&quot; color=&quot;#0000ff&quot;&gt;account-#2&lt;/font&gt;&lt;font style=&quot;font-size: 11px;&quot; color=&quot;#cc0000&quot;&gt;&amp;nbsp;&lt;/font&gt;user)&lt;/font&gt;" style="rounded=0;whiteSpace=wrap;html=1;" vertex="1" parent="1">
                    <mxGeometry x="1220" y="680" width="80" height="60" as="geometry"/>
                </mxCell>
                <mxCell id="46" style="edgeStyle=orthogonalEdgeStyle;html=1;entryX=0.5;entryY=0;entryDx=0;entryDy=0;strokeColor=#0000FF;fontSize=11;fontColor=#0000FF;" edge="1" parent="1" target="45">
                    <mxGeometry relative="1" as="geometry">
                        <mxPoint x="820" y="860" as="sourcePoint"/>
                        <Array as="points">
                            <mxPoint x="820" y="1020"/>
                            <mxPoint x="1080" y="1020"/>
                            <mxPoint x="1080" y="560"/>
                            <mxPoint x="1260" y="560"/>
                        </Array>
                    </mxGeometry>
                </mxCell>
                <mxCell id="68" value="redirect &lt;br&gt;to webform" style="edgeLabel;html=1;align=center;verticalAlign=middle;resizable=0;points=[];fontSize=11;fontColor=#000000;" vertex="1" connectable="0" parent="46">
                    <mxGeometry x="-0.9412" y="2" relative="1" as="geometry">
                        <mxPoint x="-2" y="15" as="offset"/>
                    </mxGeometry>
                </mxCell>
                <mxCell id="50" value="&lt;p style=&quot;line-height: 100%;&quot;&gt;&amp;nbsp; &amp;nbsp; &amp;nbsp; &amp;nbsp; &amp;nbsp;&lt;/p&gt;&lt;p style=&quot;line-height: 100%;&quot;&gt;&amp;nbsp; &amp;nbsp; &amp;nbsp;Resolve API&lt;/p&gt;" style="rounded=1;whiteSpace=wrap;html=1;align=left;labelPosition=center;verticalLabelPosition=middle;verticalAlign=top;" vertex="1" parent="1">
                    <mxGeometry x="1100" y="800" width="280" height="180" as="geometry"/>
                </mxCell>
                <mxCell id="51" value="Update detials API" style="rounded=0;whiteSpace=wrap;html=1;" vertex="1" parent="1">
                    <mxGeometry x="1140" y="890" width="200" height="60" as="geometry"/>
                </mxCell>
                <mxCell id="52" style="edgeStyle=orthogonalEdgeStyle;html=1;entryX=0.151;entryY=0.01;entryDx=0;entryDy=0;entryPerimeter=0;strokeColor=#CC0000;fontSize=11;fontColor=#0000FF;" edge="1" parent="1" source="43" target="51">
                    <mxGeometry relative="1" as="geometry"/>
                </mxCell>
                <mxCell id="53" style="edgeStyle=orthogonalEdgeStyle;html=1;entryX=0.604;entryY=-0.031;entryDx=0;entryDy=0;strokeColor=#0000FF;fontSize=11;fontColor=#0000FF;entryPerimeter=0;" edge="1" parent="1" source="45" target="51">
                    <mxGeometry relative="1" as="geometry"/>
                </mxCell>
                <mxCell id="55" value="&lt;p style=&quot;margin: 12px 0px 0px; font-variant-numeric: normal; font-variant-east-asian: normal; font-variant-alternates: normal; font-kerning: auto; font-optical-sizing: auto; font-feature-settings: normal; font-variation-settings: normal; font-stretch: normal; font-size: 12px; line-height: normal; color: rgb(0, 0, 0); text-align: start;&quot; class=&quot;p1&quot;&gt;Earlier in the Oct 17th meeting, Kevin explained the workflow of the application: the user will first login to the &quot;Resolve Portal&quot;, then on the page where the information gets displayed, the user click on a link; This will redirect them to the &quot;Intranet Webform&quot; of which will use &quot;Resolve API&quot; to modify information that was getting displayed on the previous page on &quot;Resolve Portal&quot;.&lt;span class=&quot;Apple-converted-space&quot;&gt;&amp;nbsp;&lt;/span&gt;&lt;/p&gt;&lt;p style=&quot;margin: 18px 0px 0px 21.6px; font-variant-numeric: normal; font-variant-east-asian: normal; font-variant-alternates: normal; font-kerning: auto; font-optical-sizing: auto; font-feature-settings: normal; font-variation-settings: normal; font-stretch: normal; font-size: 12px; line-height: normal; font-family: Menlo; min-height: 14px; color: rgb(0, 0, 0); text-align: start;&quot; class=&quot;p2&quot;&gt;&lt;br&gt;&lt;/p&gt;&lt;p style=&quot;margin: 12px 0px 0px 21.6px; font-variant-numeric: normal; font-variant-east-asian: normal; font-variant-alternates: normal; font-kerning: auto; font-optical-sizing: auto; font-feature-settings: normal; font-variation-settings: normal; font-stretch: normal; font-size: 12px; line-height: normal; font-family: Menlo; color: rgb(0, 0, 0); text-align: start;&quot; class=&quot;p3&quot;&gt;We have some question about the implementation details of this workflow, more specifically in regards to the &quot;link&quot; the user clicks at &quot;Resolve Portal&quot;. Is it the case that: developers on &quot;resolve&quot; side will implement this link feature, and the link will vary under different conditions?&lt;span class=&quot;Apple-converted-space&quot;&gt;&amp;nbsp;&lt;/span&gt;&lt;/p&gt;&lt;p style=&quot;margin: 12px 0px 0px 21.6px; font-variant-numeric: normal; font-variant-east-asian: normal; font-variant-alternates: normal; font-kerning: auto; font-optical-sizing: auto; font-feature-settings: normal; font-variation-settings: normal; font-stretch: normal; font-size: 12px; line-height: normal; font-family: Menlo; min-height: 14px; color: rgb(0, 0, 0); text-align: start;&quot; class=&quot;p4&quot;&gt;&lt;br&gt;&lt;/p&gt;&lt;p style=&quot;margin: 12px 0px 0px 21.6px; font-variant-numeric: normal; font-variant-east-asian: normal; font-variant-alternates: normal; font-kerning: auto; font-optical-sizing: auto; font-feature-settings: normal; font-variation-settings: normal; font-stretch: normal; font-size: 12px; line-height: normal; font-family: Menlo; color: rgb(0, 0, 0); text-align: start;&quot; class=&quot;p3&quot;&gt;For instance, here's three conditions:&lt;span class=&quot;Apple-converted-space&quot;&gt;&amp;nbsp;&lt;/span&gt;&lt;/p&gt;&lt;p style=&quot;margin: 12px 0px 0px 21.6px; font-variant-numeric: normal; font-variant-east-asian: normal; font-variant-alternates: normal; font-kerning: auto; font-optical-sizing: auto; font-feature-settings: normal; font-variation-settings: normal; font-stretch: normal; font-size: 12px; line-height: normal; font-family: Menlo; color: rgb(0, 0, 0); text-align: start;&quot; class=&quot;p3&quot;&gt;- Condition-1: A user is NOT logged in and he gets to the page.&lt;/p&gt;&lt;p style=&quot;margin: 12px 0px 0px 21.6px; font-variant-numeric: normal; font-variant-east-asian: normal; font-variant-alternates: normal; font-kerning: auto; font-optical-sizing: auto; font-feature-settings: normal; font-variation-settings: normal; font-stretch: normal; font-size: 12px; line-height: normal; font-family: Menlo; color: rgb(0, 0, 0); text-align: start;&quot; class=&quot;p3&quot;&gt;- Condition-2: A user of &quot;account-#1&quot; is logged in and he gets to the page.&lt;span class=&quot;Apple-converted-space&quot;&gt;&amp;nbsp;&lt;/span&gt;&lt;/p&gt;&lt;p style=&quot;margin: 12px 0px 0px 21.6px; font-variant-numeric: normal; font-variant-east-asian: normal; font-variant-alternates: normal; font-kerning: auto; font-optical-sizing: auto; font-feature-settings: normal; font-variation-settings: normal; font-stretch: normal; font-size: 12px; line-height: normal; font-family: Menlo; color: rgb(0, 0, 0); text-align: start;&quot; class=&quot;p3&quot;&gt;- Condition-2: A user of &quot;account-#2&quot; is logged in and he gets to the page.&lt;span class=&quot;Apple-converted-space&quot;&gt;&amp;nbsp;&lt;/span&gt;&lt;/p&gt;&lt;p style=&quot;margin: 12px 0px 0px 21.6px; font-variant-numeric: normal; font-variant-east-asian: normal; font-variant-alternates: normal; font-kerning: auto; font-optical-sizing: auto; font-feature-settings: normal; font-variation-settings: normal; font-stretch: normal; font-size: 12px; line-height: normal; font-family: Menlo; color: rgb(0, 0, 0); text-align: start;&quot; class=&quot;p3&quot;&gt;Is it true that, for each condition, the user will be presented with different links (for instance: &quot;www.portal.iro/login&quot;, &quot;www.intranet.iro/webform/account-1&quot;, &quot;www.intranet.iro/webform/account-2&quot;), and this is achieved on the &quot;resolve&quot; end, no developments are needed on our end.&lt;span class=&quot;Apple-converted-space&quot;&gt;&amp;nbsp;&lt;/span&gt;&lt;/p&gt;&lt;p style=&quot;margin: 12px 0px 0px 21.6px; font-variant-numeric: normal; font-variant-east-asian: normal; font-variant-alternates: normal; font-kerning: auto; font-optical-sizing: auto; font-feature-settings: normal; font-variation-settings: normal; font-stretch: normal; font-size: 12px; line-height: normal; font-family: Menlo; min-height: 14px; color: rgb(0, 0, 0); text-align: start;&quot; class=&quot;p4&quot;&gt;&lt;br&gt;&lt;/p&gt;&lt;p style=&quot;margin: 12px 0px 0px 21.6px; font-variant-numeric: normal; font-variant-east-asian: normal; font-variant-alternates: normal; font-kerning: auto; font-optical-sizing: auto; font-feature-settings: normal; font-variation-settings: normal; font-stretch: normal; font-size: 12px; line-height: normal; font-family: Menlo; color: rgb(0, 0, 0); text-align: start;&quot; class=&quot;p3&quot;&gt;(Technical notes for Kevin:&lt;span class=&quot;Apple-converted-space&quot;&gt;&amp;nbsp;&lt;/span&gt;&lt;/p&gt;&lt;p style=&quot;margin: 12px 0px 0px 21.6px; font-variant-numeric: normal; font-variant-east-asian: normal; font-variant-alternates: normal; font-kerning: auto; font-optical-sizing: auto; font-feature-settings: normal; font-variation-settings: normal; font-stretch: normal; font-size: 12px; line-height: normal; font-family: Menlo; color: rgb(0, 0, 0); text-align: start;&quot; class=&quot;p3&quot;&gt;- The reason for this concern is that after investigation, it is found that due to the &quot;same-origin policy&quot;, there's no way of &quot;passing cookie&quot; from one domain to another domain; consequently, after switching to the intranet webform, there's no way for the webform to tell the current logged-in state (and which user) unless a unique URL is provided (or intranet put something in the request body before the jumps commence).&lt;span class=&quot;Apple-converted-space&quot;&gt;&amp;nbsp;&lt;/span&gt;&lt;/p&gt;&lt;p style=&quot;margin: 12px 0px 12px 21.6px; font-variant-numeric: normal; font-variant-east-asian: normal; font-variant-alternates: normal; font-kerning: auto; font-optical-sizing: auto; font-feature-settings: normal; font-variation-settings: normal; font-stretch: normal; font-size: 12px; line-height: normal; font-family: Menlo; color: rgb(0, 0, 0); text-align: start;&quot; class=&quot;p5&quot;&gt;- If by any chance I have misunderstood any of the technical details, I kindly request you to please correct me.&lt;span class=&quot;Apple-converted-space&quot;&gt;&amp;nbsp;&lt;/span&gt;&lt;/p&gt;" style="text;html=1;strokeColor=none;fillColor=none;align=center;verticalAlign=middle;whiteSpace=wrap;rounded=0;fontSize=11;fontColor=#0000FF;" vertex="1" parent="1">
                    <mxGeometry x="1440" y="480" width="670" height="540" as="geometry"/>
                </mxCell>
                <mxCell id="60" value="" style="edgeStyle=segmentEdgeStyle;endArrow=classic;html=1;curved=0;rounded=0;endSize=8;startSize=8;sourcePerimeterSpacing=0;targetPerimeterSpacing=0;strokeColor=#4D9900;fontSize=11;fontColor=#000000;" edge="1" parent="1" target="62">
                    <mxGeometry width="100" relative="1" as="geometry">
                        <mxPoint x="1175" y="530" as="sourcePoint"/>
                        <mxPoint x="1325" y="540" as="targetPoint"/>
                        <Array as="points">
                            <mxPoint x="1175" y="530"/>
                            <mxPoint x="1340" y="530"/>
                        </Array>
                    </mxGeometry>
                </mxCell>
                <mxCell id="61" value="Edge case: people&amp;nbsp;visiting webform&amp;nbsp;&lt;br&gt;at url:&amp;nbsp;&amp;nbsp;www.intranet.iro/webform/&lt;br&gt;(with out giving the user-name in url)" style="text;html=1;align=center;verticalAlign=middle;resizable=0;points=[];autosize=1;strokeColor=none;fillColor=none;fontSize=11;fontColor=#000000;" vertex="1" parent="1">
                    <mxGeometry x="1150" y="485" width="200" height="50" as="geometry"/>
                </mxCell>
                <mxCell id="63" style="edgeStyle=orthogonalEdgeStyle;html=1;strokeColor=#4D9900;fontSize=11;fontColor=#FF8000;" edge="1" parent="1" source="62" target="40">
                    <mxGeometry relative="1" as="geometry">
                        <Array as="points">
                            <mxPoint x="1340" y="790"/>
                            <mxPoint x="1390" y="790"/>
                            <mxPoint x="1390" y="1050"/>
                            <mxPoint x="280" y="1050"/>
                        </Array>
                    </mxGeometry>
                </mxCell>
                <mxCell id="66" value="redirect &lt;br&gt;to login" style="edgeLabel;html=1;align=center;verticalAlign=middle;resizable=0;points=[];fontSize=11;fontColor=#000000;" vertex="1" connectable="0" parent="63">
                    <mxGeometry x="0.9308" y="1" relative="1" as="geometry">
                        <mxPoint x="-24" y="-35" as="offset"/>
                    </mxGeometry>
                </mxCell>
                <mxCell id="62" value="&lt;span style=&quot;font-size: 11px;&quot;&gt;Redirect&lt;/span&gt;" style="rounded=0;whiteSpace=wrap;html=1;" vertex="1" parent="1">
                    <mxGeometry x="1310" y="680" width="60" height="60" as="geometry"/>
                </mxCell>
                <mxCell id="70" style="edgeStyle=orthogonalEdgeStyle;html=1;entryX=0.11;entryY=-0.003;entryDx=0;entryDy=0;strokeColor=#0000FF;fontSize=11;fontColor=#000000;exitX=1.007;exitY=0.618;exitDx=0;exitDy=0;exitPerimeter=0;entryPerimeter=0;" edge="1" parent="1" source="40" target="32">
                    <mxGeometry relative="1" as="geometry">
                        <mxPoint x="340" y="960" as="sourcePoint"/>
                        <mxPoint x="555" y="700" as="targetPoint"/>
                        <Array as="points">
                            <mxPoint x="341" y="960"/>
                            <mxPoint x="430" y="960"/>
                            <mxPoint x="430" y="660"/>
                            <mxPoint x="789" y="660"/>
                        </Array>
                    </mxGeometry>
                </mxCell>
            </root>
        </mxGraphModel>
    </diagram>
</mxfile>